# xmcd
#
# Track frame offsets: 
#        150
#        18190
#        40724
#        59038
#        79061
#        98512
#        116032
#        136977
#        154308
#        172953
#        192448
#
# Disc length: 2809 seconds
#
# Revision: 0
# Processed by: cddbd v1.5.2PL0 Copyright (c) Steve Scherf et al.
# Submitted via: ExactAudioCopy v1.0b3
#
DISCID=8a0af70b
DTITLE=Todd Royce - Step Into The Light
DYEAR=2002
DGENRE=Blues
TTITLE0=Slow Change
TTITLE1=Indecision
TTITLE2=Waves
TTITLE3=Sometimes Rain
TTITLE4=One Way Ticket
TTITLE5=Piece of your Mind
TTITLE6=Man Gone Missing
TTITLE7=What I Need
TTITLE8=I'll Follow You Down
TTITLE9=Listen to your Heart
TTITLE10=Step Into The Light
EXTD=
EXTT0=
EXTT1=
EXTT2=
EXTT3=
EXTT4=
EXTT5=
EXTT6=
EXTT7=
EXTT8=
EXTT9=
EXTT10=
PLAYORDER=
